<svg xmlns="http://www.w3.org/2000/svg" xmlns:xlink="http://www.w3.org/1999/xlink" version="1.1" width="256" height="256" viewBox="0 0 256 256" xml:space="preserve">
<desc>Created with Fabric.js 1.7.22</desc>
<defs>
</defs>
<g transform="translate(128 128) scale(0.72 0.72)" style="">
	<g style="stroke: none; stroke-width: 0; stroke-dasharray: none; stroke-linecap: butt; stroke-linejoin: miter; stroke-miterlimit: 10; fill: none; fill-rule: nonzero; opacity: 1;" transform="translate(-175.05 -175.05000000000004) scale(3.89 3.89)" >
	<path d="M 84.114 77.488 V 27.237 H 59.038 v -8.411 H 46.5 V 9.512 h -3 v 9.314 H 30.962 v 8.411 H 5.886 v 50.251 H 0 v 3 h 38.314 h 13.371 H 90 v -3 H 84.114 z M 81.114 30.237 v 47.251 H 59.038 V 30.237 H 81.114 z M 8.886 30.237 h 22.076 v 47.251 H 8.886 V 30.237 z M 41.314 77.488 V 54.53 h 7.371 v 22.958 H 41.314 z M 38.314 51.53 v 25.958 h -4.353 V 27.237 v -5.411 h 22.076 v 5.411 v 50.251 h -4.353 V 51.53 H 38.314 z" style="stroke: none; stroke-width: 1; stroke-dasharray: none; stroke-linecap: butt; stroke-linejoin: miter; stroke-miterlimit: 10; fill: rgb(255,255,255); fill-rule: nonzero; opacity: 1;" transform=" matrix(1 0 0 1 0 0) " stroke-linecap="round" />
	<path d="M 76.762 34.478 H 63.391 v 13.372 h 13.371 V 34.478 z M 73.762 44.849 h -7.371 v -7.372 h 7.371 V 44.849 z" style="stroke: none; stroke-width: 1; stroke-dasharray: none; stroke-linecap: butt; stroke-linejoin: miter; stroke-miterlimit: 10; fill: rgb(255,255,255); fill-rule: nonzero; opacity: 1;" transform=" matrix(1 0 0 1 0 0) " stroke-linecap="round" />
	<path d="M 76.762 51.53 H 63.391 v 13.372 h 13.371 V 51.53 z M 73.762 61.902 h -7.371 V 54.53 h 7.371 V 61.902 z" style="stroke: none; stroke-width: 1; stroke-dasharray: none; stroke-linecap: butt; stroke-linejoin: miter; stroke-miterlimit: 10; fill: rgb(255,255,255); fill-rule: nonzero; opacity: 1;" transform=" matrix(1 0 0 1 0 0) " stroke-linecap="round" />
	<path d="M 13.238 34.478 v 13.372 H 26.61 V 34.478 H 13.238 z M 23.61 44.849 h -7.372 v -7.372 h 7.372 V 44.849 z" style="stroke: none; stroke-width: 1; stroke-dasharray: none; stroke-linecap: butt; stroke-linejoin: miter; stroke-miterlimit: 10; fill: rgb(255,255,255); fill-rule: nonzero; opacity: 1;" transform=" matrix(1 0 0 1 0 0) " stroke-linecap="round" />
	<path d="M 13.238 64.902 H 26.61 V 51.53 H 13.238 V 64.902 z M 16.238 54.53 h 7.372 v 7.372 h -7.372 V 54.53 z" style="stroke: none; stroke-width: 1; stroke-dasharray: none; stroke-linecap: butt; stroke-linejoin: miter; stroke-miterlimit: 10; fill: rgb(255,255,255); fill-rule: nonzero; opacity: 1;" transform=" matrix(1 0 0 1 0 0) " stroke-linecap="round" />
	<path d="M 51.683 31.943 l -0.061 -0.884 L 45 27.974 l -6.623 3.084 l -0.06 0.884 c -0.297 4.414 1.664 8.113 5.829 10.994 L 45 43.528 l 0.854 -0.591 C 50.02 40.055 51.98 36.356 51.683 31.943 z M 45 39.837 c -2.425 -1.932 -3.645 -4.179 -3.708 -6.827 L 45 31.284 l 3.709 1.727 C 48.646 35.658 47.425 37.905 45 39.837 z" style="stroke: none; stroke-width: 1; stroke-dasharray: none; stroke-linecap: butt; stroke-linejoin: miter; stroke-miterlimit: 10; fill: rgb(255,255,255); fill-rule: nonzero; opacity: 1;" transform=" matrix(1 0 0 1 0 0) " stroke-linecap="round" />
</g>
</g>
</svg>